<?xml version="1.0" encoding="UTF-8"?>
<svg width="278px" height="209px" viewBox="0 0 278 209" version="1.1" xmlns="http://www.w3.org/2000/svg" xmlns:xlink="http://www.w3.org/1999/xlink">
    <!-- Generator: Sketch 49.3 (51167) - http://www.bohemiancoding.com/sketch -->
    <title>logo-win</title>
    <desc>Created with Sketch.</desc>
    <defs></defs>
    <g id="Page-2" stroke="none" stroke-width="1" fill="none" fill-rule="evenodd">
        <g id="01_splash" transform="translate(-21.000000, -106.000000)">
            <g id="logo-win" transform="translate(21.000000, 106.000000)">
                <path d="M111.514,208.562996 L105.030826,185.169167 C104.244983,182.690739 102.824442,176.933013 100.76916,167.895817 L100.361128,167.895817 C98.6080932,176.056496 97.2177762,181.844446 96.1901351,185.259841 L89.5256141,208.562996 L77.7380259,208.562996 L63.6835938,158.420409 L74.5644444,158.420409 L80.9569442,183.129008 C82.4077315,189.234405 83.4353571,194.463206 84.0398519,198.815568 L84.3118731,198.815568 C84.6141205,196.609162 85.0750408,194.077878 85.6946479,191.221641 C86.314255,188.365403 86.850736,186.227035 87.3041071,184.806472 L94.9207025,158.420409 L106.617617,158.420409 L114.007528,184.806472 C114.460899,186.287484 115.027604,188.554306 115.707661,191.607004 C116.387718,194.659702 116.788189,197.032309 116.909088,198.724894 L117.271783,198.724894 C117.725154,195.007251 118.783004,189.808675 120.445365,183.129008 L126.928538,158.420409 L137.628041,158.420409 L123.482936,208.562996 L111.514,208.562996 Z M156.896214,208.562996 L146.242048,208.562996 L146.242048,158.420409 L156.896214,158.420409 L156.896214,208.562996 Z M216.242188,208.562996 L205.542684,208.562996 L205.542684,177.733919 C205.542684,173.865153 204.764409,170.978734 203.207835,169.074576 C201.651261,167.170417 199.180426,166.218352 195.795256,166.218352 C191.29177,166.218352 187.997323,167.548221 185.911816,170.207998 C183.826309,172.867774 182.783572,177.325856 182.783572,183.582377 L182.783572,208.562996 L172.129405,208.562996 L172.129405,158.420409 L180.471391,158.420409 L181.967508,164.994257 L182.51155,164.994257 C184.022787,162.606503 186.168711,160.762821 188.949387,159.463158 C191.730063,158.163494 194.81294,157.513672 198.19811,157.513672 C210.227555,157.513672 216.242188,163.634089 216.242188,175.875107 L216.242188,208.562996 Z" id="win" fill="#FFFFFF"></path>
                <path d="M69.5,0 L69.5,0 C107.88379,-7.05098786e-15 139,31.1162099 139,69.5 L139,139 L69.5,139 C31.1162099,139 4.70065857e-15,107.88379 0,69.5 L0,69.5 C-4.70065857e-15,31.1162099 31.1162099,7.05098786e-15 69.5,0 Z" id="Rectangle-3" fill-opacity="0.1" fill="#000000"></path>
                <path d="M208.5,0 L208.5,0 C246.88379,-7.05098786e-15 278,31.1162099 278,69.5 L278,69.5 C278,107.88379 246.88379,139 208.5,139 L139,139 L139,69.5 C139,31.1162099 170.11621,7.05098786e-15 208.5,0 Z" id="Rectangle-3-Copy" fill-opacity="0.1" fill="#000000"></path>
                <path d="M87,35 L87,35 C115.718807,35 139,58.281193 139,87 L139,139 L87,139 C58.281193,139 35,115.718807 35,87 L35,87 C35,58.281193 58.281193,35 87,35 Z" id="Rectangle-3" fill="#FCE156"></path>
                <path d="M191,35 L191,35 C219.718807,35 243,58.281193 243,87 L243,87 C243,115.718807 219.718807,139 191,139 L139,139 L139,87 C139,58.281193 162.281193,35 191,35 Z" id="Rectangle-3-Copy" fill-opacity="0.05" fill="#000000"></path>
                <path d="M104,69 L104,69 C123.329966,69 139,84.6700338 139,104 L139,139 L104,139 C84.6700338,139 69,123.329966 69,104 L69,104 C69,84.6700338 84.6700338,69 104,69 Z" id="Rectangle-3" fill-opacity="0.400000006" fill="#FFFFFF"></path>
                <path d="M174,69 L174,69 C193.329966,69 209,84.6700338 209,104 L209,104 C209,123.329966 193.329966,139 174,139 L139,139 L139,104 C139,84.6700338 154.670034,69 174,69 Z" id="Rectangle-3-Copy" fill-opacity="0.99" fill="#FB8460"></path>
            </g>
        </g>
    </g>
</svg>