<?xml version="1.0" encoding="UTF-8"?>
<svg width="202px" height="178px" viewBox="0 0 202 178" version="1.1" xmlns="http://www.w3.org/2000/svg" xmlns:xlink="http://www.w3.org/1999/xlink">
    <defs>
        <linearGradient x1="412.526041%" y1="15.8124939%" x2="0%" y2="15.8124939%" id="linearGradient-1">
            <stop stop-color="#000000" offset="0%"></stop>
            <stop stop-color="#000000" stop-opacity="0" offset="100%"></stop>
        </linearGradient>
    </defs>
    <g id="Page-1" stroke="none" stroke-width="1" fill="none" fill-rule="evenodd">
        <g id="logo-win">
            <path d="M34.4318183,63.1304346 L34.4318183,63.1304346 C53.4479864,63.1304346 68.8636365,78.5460847 68.8636365,97.5622528 L68.8636365,132 L34.4347826,132 C15.4169774,132 1.21495484e-07,116.583022 1.21495482e-07,97.5652171 L1.21495475e-07,97.5622528 C1.21495473e-07,78.5460847 15.4156502,63.1304346 34.4318183,63.1304346 Z" id="Rectangle" fill="url(#linearGradient-1)" opacity="0.5"></path>
            <path d="M138.875,5.73913043 L138.875,5.73913043 C173.737975,5.73913043 202,34.0011556 202,68.8641304 L202,132 L138.880434,132 C104.014458,132 75.7499999,103.735541 75.7499999,68.869565 L75.7499999,68.8641304 C75.7499999,34.0011556 104.012025,5.73913043 138.875,5.73913043 Z" id="Rectangle-Copy" fill="url(#linearGradient-1)" opacity="0.5" transform="translate(138.875000, 68.869565) rotate(90.000000) translate(-138.875000, -68.869565) "></path>
            <path d="M34.4318183,57.3913041 L34.4318183,57.3913041 C53.4479864,57.3913041 68.8636365,72.8069542 68.8636365,91.8231223 L68.8636365,126.260869 L34.4347826,126.260869 C15.4169774,126.260869 1.21495484e-07,110.843892 1.21495482e-07,91.8260866 L1.21495482e-07,91.8231223 C1.2149548e-07,72.8069542 15.4156502,57.3913041 34.4318183,57.3913041 Z" id="Rectangle" fill-opacity="0.99" fill="#FB8460"></path>
            <path d="M138.875,0 L138.875,0 C173.737975,-6.40422458e-15 202,28.2620252 202,63.125 L202,126.260869 L138.880434,126.260869 C104.014458,126.260869 75.7499999,97.9964108 75.7499999,63.1304346 L75.7499999,63.125 C75.7499999,28.2620252 104.012025,6.40422458e-15 138.875,0 Z" id="Rectangle-Copy" fill-opacity="0.99" fill="#FFE356" transform="translate(138.875000, 63.130435) rotate(90.000000) translate(-138.875000, -63.130435) "></path>
            <path d="M76.5157746,178 L73.8752113,165.985075 L70.3135211,150.805092 L70.0985915,150.805092 L63.8349296,178 L53.7639437,178 L44,143.645303 L53.3340845,143.645303 L57.2949296,158.856014 C57.9294867,161.58064 58.574269,165.339748 59.2292958,170.13345 L59.4135211,170.13345 C59.4953995,168.576521 59.8536119,166.108006 60.488169,162.727831 L60.9794366,160.115891 L65.2166197,143.645303 L75.5332394,143.645303 L79.555493,160.115891 C79.6373713,160.566581 79.7653043,161.232363 79.9392958,162.113257 C80.1132873,162.994151 80.2821588,163.931368 80.4459155,164.924934 C80.6096722,165.918501 80.7580745,166.891567 80.8911268,167.844162 C81.0241791,168.796756 81.1009389,169.559845 81.1214085,170.13345 L81.3056338,170.13345 C81.4898601,168.658465 81.8173685,166.635512 82.288169,164.06453 C82.7589695,161.493549 83.0967126,159.757394 83.3014085,158.856014 L87.4157746,143.645303 L96.596338,143.645303 L86.7095775,178 L76.5157746,178 Z" id="Path" fill="#FFFFFF"></path>
            <polygon id="Path" fill="#FFFFFF" points="111.487887 178 102.123099 178 102.123099 143.645303 111.487887 143.645303"></polygon>
            <path d="M153,178 L143.635211,178 L143.635211,157.934153 C143.635211,155.455358 143.195122,153.596289 142.31493,152.356892 C141.434737,151.117495 140.032592,150.497805 138.108451,150.497805 C135.488344,150.497805 133.594935,151.373565 132.428169,153.12511 C131.261403,154.876655 130.678028,157.780489 130.678028,161.836699 L130.678028,178 L121.313239,178 L121.313239,143.645303 L128.467324,143.645303 L129.726197,148.039508 L130.248169,148.039508 C131.292118,146.38015 132.730085,145.125407 134.562113,144.275241 C136.394141,143.425076 138.47689,143 140.810423,143 C144.801992,143 147.831445,144.080615 149.898873,146.241879 C151.966301,148.403142 153,151.522075 153,155.598771 L153,178 Z" id="Path" fill="#FFFFFF"></path>
        </g>
    </g>
</svg>