<?xml version="1.0" encoding="UTF-8"?>
<svg width="50px" height="50px" viewBox="0 0 50 50" version="1.1" xmlns="http://www.w3.org/2000/svg" xmlns:xlink="http://www.w3.org/1999/xlink">
    <!-- Generator: Sketch 49.2 (51160) - http://www.bohemiancoding.com/sketch -->
    <title>Combined Shape</title>
    <desc>Created with Sketch.</desc>
    <defs></defs>
    <g id="Symbols" stroke="none" stroke-width="1" fill="none" fill-rule="evenodd">
        <g id="select-2-peq" transform="translate(-198.000000, 0.000000)" fill="#34C595">
            <path d="M198,0 L248,0 L248,50 L198,50 L198,0 Z M223,28.6541428 L215.999751,22.120685 C215.826955,21.9565671 215.541641,21.9604746 215.364826,22.1285002 L214.135161,23.2968637 C213.958347,23.4648893 213.954328,23.7384192 214.127124,23.9025371 L222.6745,31.881796 C222.762908,31.963855 222.879445,32.0029307 223,31.9990231 C223.116537,32.0068382 223.237092,31.9677625 223.3255,31.881796 L231.872876,23.9025371 C232.045672,23.7384192 232.041653,23.4648893 231.864839,23.2968637 L230.635174,22.1285002 C230.458359,21.9604746 230.173045,21.9565671 230.000249,22.120685 L223,28.6541428 Z" id="Combined-Shape"></path>
        </g>
    </g>
</svg>