<?xml version="1.0" encoding="UTF-8"?>
<svg width="19px" height="50px" viewBox="0 0 19 50" version="1.1" xmlns="http://www.w3.org/2000/svg" xmlns:xlink="http://www.w3.org/1999/xlink">
    <!-- Generator: Sketch 49.1 (51147) - http://www.bohemiancoding.com/sketch -->
    <title>Combined Shape</title>
    <desc>Created with Sketch.</desc>
    <defs></defs>
    <g id="Symbols" stroke="none" stroke-width="1" fill="none" fill-rule="evenodd">
        <g id="hombre" transform="translate(-56.000000, -78.000000)" fill="#FFFFFF" fill-rule="nonzero">
            <g id="Group" transform="translate(56.000000, 78.000000)">
                <path d="M9,7.99995209 C6.79088472,7.99995209 5,6.2090781 5,3.99997604 C5,1.79087399 6.79088472,0 9,0 C11.2091153,0 13,1.79087399 13,3.99997604 C13,6.21980189 11.2091153,8.01067589 9,7.99995209 Z M13.7297619,9 C16.9077381,9 19,11.7967827 19,14.4363166 L19,27.1959358 C19,29.6669888 15.3809524,29.6669888 15.3809524,27.1959358 L15.3809524,15.4022737 L14.8154762,15.4022737 L14.8154762,47.4810347 C14.8154762,50.6597074 10.1446429,50.9966692 9.95238095,47.4922667 L9.95238095,28.9930653 L9.83928571,28.9930653 L9.04761905,28.9930653 L9.04761905,47.4810347 C8.93452381,50.7832601 4.18452381,50.8955807 4.18452381,47.4810347 L4.18452381,15.4022737 L3.50595238,15.4022737 L3.50595238,27.1959358 C3.50595238,29.6669888 0,29.6669888 0,27.1959358 L0,14.4363166 C0,11.7855507 2.08095238,9 5.2702381,9 L9.5,9 L13.7297619,9 Z" id="Combined-Shape"></path>
            </g>
        </g>
    </g>
</svg>