<?xml version="1.0" encoding="UTF-8"?>
<svg width="22px" height="50px" viewBox="0 0 22 50" version="1.1" xmlns="http://www.w3.org/2000/svg" xmlns:xlink="http://www.w3.org/1999/xlink">
    <!-- Generator: Sketch 49.1 (51147) - http://www.bohemiancoding.com/sketch -->
    <title>Combined Shape</title>
    <desc>Created with Sketch.</desc>
    <defs></defs>
    <g id="Symbols" stroke="none" stroke-width="1" fill="none" fill-rule="evenodd">
        <g id="mujer" transform="translate(-54.000000, -78.000000)" fill="#FFFFFF" fill-rule="nonzero">
            <g id="woman" transform="translate(54.000000, 78.000000)">
                <path d="M3.37777778,13.0666667 C3.75555556,11.7333333 5.32222222,9.44444444 8.05555556,9.33333333 L13.3111111,9.33333333 C15.9555556,9.44444444 17.5333333,11.7555556 17.9777778,13.0666667 L21.2444444,24.6666667 C21.9111111,27.1888889 18.9333333,28.2333333 18.2111111,25.8 L15.2888889,15.1111111 L14.3555556,15.1111111 L19.4888889,33.8888889 L14.6666667,33.8888889 L14.6666667,48 C14.6666667,50.5555556 11.2222222,50.5555556 11.2222222,48 L11.2222222,33.8888889 L10.1111111,33.8888889 L10.1111111,48 C10.1111111,50.5555556 6.55555556,50.5555556 6.55555556,48 L6.55555556,33.8888889 L1.86666667,33.8888889 L6.88888889,15.1111111 L6.06666667,15.1111111 L3.14444444,25.8 C2.41111111,28.1777778 -0.588888889,27.1888889 0.111111111,24.6555556 L3.37777778,13.0666667 Z M14.7333333,4.24444444 C14.7333333,6.53333333 12.9111111,8.38888889 10.6666667,8.38888889 C8.42222222,8.38888889 6.6,6.53333333 6.6,4.24444444 C6.6,1.95555556 8.42222222,0.1 10.6666667,0.1 C12.9111111,0.1 14.7333333,1.95555556 14.7333333,4.24444444 Z" id="Combined-Shape"></path>
            </g>
        </g>
    </g>
</svg>